<svg version="1.1" viewBox="0.0 0.0 500.0 542.0" fill="none" stroke="none" stroke-linecap="square" stroke-miterlimit="10" xmlns:xlink="http://www.w3.org/1999/xlink" xmlns="http://www.w3.org/2000/svg"><clipPath id="p.0"><path d="m0 0l500.0 0l0 542.0l-500.0 0l0 -542.0z" clip-rule="nonzero"/></clipPath><g clip-path="url(#p.0)"><path fill="#000000" fill-opacity="0.0" d="m0 0l500.0 0l0 542.0l-500.0 0z" fill-rule="evenodd"/><path fill="#000000" fill-opacity="0.0" d="m58.643314 248.35498c20.357868 -9.971207 81.01601 -45.909073 122.1472 -59.827194c41.13121 -13.918137 79.561874 -20.150131 124.64 -23.68161c45.078125 -3.5314636 121.52402 2.0773315 145.8288 2.4927979" fill-rule="evenodd"/><path stroke="#bcc3cd" stroke-width="24.0" stroke-linejoin="round" stroke-linecap="butt" d="m58.643314 248.35498c20.357868 -9.971207 81.01601 -45.909073 122.1472 -59.827194c41.13121 -13.918137 79.561874 -20.150131 124.64 -23.68161c45.078125 -3.5314636 121.52402 2.0773315 145.8288 2.4927979" fill-rule="evenodd"/><path fill="#000000" fill-opacity="0.0" d="m197.02306 70.379395c-3.12146 20.52089 -18.3078 77.67645 -18.728714 123.12535c-0.4209137 45.448883 7.007324 105.69945 16.203201 149.56801c9.195877 43.86853 32.47673 94.70267 38.972076 113.64322" fill-rule="evenodd"/><path stroke="#bcc3cd" stroke-width="24.0" stroke-linejoin="round" stroke-linecap="butt" d="m197.02306 70.379395c-3.12146 20.52089 -18.3078 77.67645 -18.728714 123.12535c-0.4209137 45.448883 7.007324 105.69945 16.203201 149.56801c9.195877 43.86853 32.47673 94.70267 38.972076 113.64322" fill-rule="evenodd"/><path fill="#2c2d7a" d="m171.15486 56.157486l0 0c0 -16.655518 13.501968 -30.15748 30.157486 -30.15748l0 0c7.9982605 0 15.66893 3.1772957 21.324554 8.832922c5.6556244 5.6556244 8.8329315 13.326298 8.8329315 21.324558l0 0c0 16.655518 -13.501968 30.157478 -30.157486 30.157478l0 0c-16.655518 0 -30.157486 -13.501961 -30.157486 -30.157478z" fill-rule="evenodd"/><path fill="#2c2d7a" d="m195.98164 437.4881l0 0c0 -21.25644 17.23175 -38.48819 38.48819 -38.48819l0 0c10.207703 0 19.997314 4.0549927 27.215256 11.272949c7.217926 7.217926 11.272919 17.007538 11.272919 27.21524l0 0c0 21.25644 -17.231735 38.48819 -38.488174 38.48819l0 0c-21.25644 0 -38.48819 -17.23175 -38.48819 -38.48819z" fill-rule="evenodd"/><path fill="#2c2d7a" d="m38.380585 251.80315l0 0c0 -13.698395 11.104748 -24.803146 24.80315 -24.803146l0 0c6.578205 0 12.886982 2.6131897 17.538479 7.264679c4.6514893 4.6514893 7.2646713 10.960266 7.2646713 17.538467l0 0c0 13.69841 -11.104752 24.803146 -24.80315 24.803146l0 0c-13.698402 0 -24.80315 -11.104736 -24.80315 -24.803146z" fill-rule="evenodd"/><path fill="#2c2d7a" d="m397.00006 174.68234l0 0c0 -18.969025 15.370392 -34.346466 34.33072 -34.346466l0 0c9.105072 0 17.83722 3.618637 24.275482 10.059845c6.4382324 6.441223 10.055206 15.177368 10.055206 24.286621l0 0c0 18.969025 -15.370361 34.34645 -34.33069 34.34645l0 0c-18.960327 0 -34.33072 -15.377426 -34.33072 -34.34645z" fill-rule="evenodd"/><path fill="#2c2d7a" d="m128.33652 197.23622l0 0c0 -27.127182 21.990936 -49.11812 49.11812 -49.11812l0 0c13.026932 0 25.52031 5.1749268 34.73175 14.386368c9.211426 9.211426 14.386353 21.704819 14.386353 34.73175l0 0c0 27.127182 -21.990921 49.118103 -49.118103 49.118103l0 0c-27.127182 0 -49.11812 -21.990921 -49.11812 -49.118103z" fill-rule="evenodd"/></g></svg>