<svg version="1.1" viewBox="0.0 0.0 1015.5196850393701 654.7112860892388" fill="none" stroke="none" stroke-linecap="square" stroke-miterlimit="10" xmlns:xlink="http://www.w3.org/1999/xlink" xmlns="http://www.w3.org/2000/svg"><clipPath id="p.0"><path d="m0 0l1015.5197 0l0 654.7113l-1015.5197 0l0 -654.7113z" clip-rule="nonzero"/></clipPath><g clip-path="url(#p.0)"><path fill="#2c2d7a" d="m0 0l1015.5197 0l0 654.7113l-1015.5197 0z" fill-rule="evenodd"/><path fill="#000000" fill-opacity="0.0" d="m55.71391 413.46194l191.37007 -201.41733" fill-rule="evenodd"/><path stroke="#bcc3cd" stroke-width="8.0" stroke-linejoin="round" stroke-linecap="butt" d="m55.71391 413.46194l191.37007 -201.41733" fill-rule="evenodd"/><path fill="#000000" fill-opacity="0.0" d="m134.56693 415.25198l112.50394 -203.21262" fill-rule="evenodd"/><path stroke="#bcc3cd" stroke-width="8.0" stroke-linejoin="round" stroke-linecap="butt" d="m134.56693 415.25198l112.50394 -203.21262" fill-rule="evenodd"/><path fill="#000000" fill-opacity="0.0" d="m202.66667 416.44882l44.40944 -204.40945" fill-rule="evenodd"/><path stroke="#bcc3cd" stroke-width="8.0" stroke-linejoin="round" stroke-linecap="butt" d="m202.66667 416.44882l44.40944 -204.40945" fill-rule="evenodd"/><path fill="#000000" fill-opacity="0.0" d="m283.30972 417.04462l-36.22049 -205.00787" fill-rule="evenodd"/><path stroke="#bcc3cd" stroke-width="8.0" stroke-linejoin="round" stroke-linecap="butt" d="m283.30972 417.04462l-36.22049 -205.00787" fill-rule="evenodd"/><path fill="#000000" fill-opacity="0.0" d="m366.93964 416.44882l-119.84253 -204.40945" fill-rule="evenodd"/><path stroke="#bcc3cd" stroke-width="8.0" stroke-linejoin="round" stroke-linecap="butt" d="m366.93964 416.44882l-119.84253 -204.40945" fill-rule="evenodd"/><path fill="#000000" fill-opacity="0.0" d="m443.4042 416.44882l-196.31497 -204.40945" fill-rule="evenodd"/><path stroke="#bcc3cd" stroke-width="8.0" stroke-linejoin="round" stroke-linecap="butt" d="m443.4042 416.44882l-196.31497 -204.40945" fill-rule="evenodd"/><path fill="#000000" fill-opacity="0.0" d="m171.02684 519.9877l348.44092 0l0 116.62988l-348.44092 0z" fill-rule="evenodd"/><path fill="#f1e28b" d="m201.02684 581.23206q-1.515625 0.671875 -3.703125 1.34375q-2.171875 0.671875 -4.578125 0.671875q-1.578125 0 -2.953125 -0.390625q-1.359375 -0.390625 -2.40625 -1.25q-1.03125 -0.875 -1.65625 -2.25q-0.609375 -1.375 -0.609375 -3.328125l0 -16.859375l-3.859375 0l0 -5.765625l3.859375 0l0 -9.515625l7.5 0l0 9.515625l6.171875 0l0 5.765625l-6.171875 0l0 14.34375q0 1.5625 0.8125 2.203125q0.8125 0.640625 2.0 0.640625q1.171875 0 2.28125 -0.390625q1.125 -0.390625 1.796875 -0.671875l1.515625 5.9375zm21.394623 -21.328125q-3.421875 0.046875 -6.109375 1.3125q-2.6875 1.265625 -3.859375 3.78125l0 17.75l-7.5 0l0 -29.34375l6.875 0l0 6.265625q0.796875 -1.5 1.859375 -2.703125q1.0625 -1.203125 2.296875 -2.09375q1.234375 -0.90625 2.484375 -1.375q1.265625 -0.484375 2.4375 -0.484375q0.609375 0 0.921875 0q0.3125 0 0.59375 0.046875l0 6.84375zm11.811249 23.40625q-2.125 0 -3.984375 -0.703125q-1.84375 -0.703125 -3.1875 -1.953125q-1.34375 -1.265625 -2.09375 -2.9375q-0.75 -1.6875 -0.75 -3.703125q0 -2.078125 0.921875 -3.84375q0.921875 -1.765625 2.5625 -2.984375q1.65625 -1.234375 3.953125 -1.9375q2.296875 -0.703125 5.046875 -0.703125q1.953125 0 3.828125 0.34375q1.875 0.328125 3.34375 0.953125l0 -1.6875q0 -2.90625 -1.65625 -4.46875q-1.65625 -1.578125 -4.90625 -1.578125q-2.34375 0 -4.59375 0.84375q-2.234375 0.84375 -4.59375 2.453125l-2.28125 -4.75q5.65625 -3.75 12.203125 -3.75q6.328125 0 9.828125 3.109375q3.5 3.109375 3.5 8.984375l0 9.125q0 1.171875 0.421875 1.6875q0.421875 0.5 1.375 0.546875l0 6.390625q-1.90625 0.390625 -3.3125 0.390625q-2.125 0 -3.28125 -0.953125q-1.140625 -0.953125 -1.421875 -2.515625l-0.171875 -1.625q-1.953125 2.578125 -4.765625 3.921875q-2.796875 1.34375 -5.984375 1.34375zm2.125 -5.484375q1.90625 0 3.609375 -0.671875q1.71875 -0.671875 2.671875 -1.796875q1.234375 -0.953125 1.234375 -2.125l0 -3.359375q-1.34375 -0.515625 -2.921875 -0.8125q-1.5625 -0.3125 -3.015625 -0.3125q-2.921875 0 -4.765625 1.3125q-1.84375 1.3125 -1.84375 3.328125q0 1.90625 1.453125 3.171875q1.453125 1.265625 3.578125 1.265625zm34.159622 5.484375q-3.015625 0 -5.59375 -1.171875q-2.578125 -1.1875 -4.421875 -3.25q-1.84375 -2.078125 -2.890625 -4.84375q-1.03125 -2.78125 -1.03125 -5.96875q0 -3.1875 0.96875 -5.9375q0.984375 -2.75 2.71875 -4.8125q1.75 -2.078125 4.15625 -3.25q2.40625 -1.171875 5.265625 -1.171875q3.234375 0 5.84375 1.5625q2.609375 1.5625 4.0625 4.09375l0 -16.6875l7.5 0l0 32.25q0 1.171875 0.390625 1.6875q0.390625 0.5 1.34375 0.546875l0 6.390625q-1.953125 0.390625 -3.1875 0.390625q-2.015625 0 -3.3125 -1.0q-1.28125 -1.015625 -1.453125 -2.640625l-0.15625 -1.84375q-1.625 2.796875 -4.40625 4.234375q-2.765625 1.421875 -5.796875 1.421875zm1.96875 -6.390625q1.0625 0 2.171875 -0.359375q1.125 -0.359375 2.078125 -1.03125q0.953125 -0.671875 1.703125 -1.5625q0.765625 -0.90625 1.15625 -1.96875l0 -7.0q-0.453125 -1.234375 -1.265625 -2.265625q-0.8125 -1.046875 -1.84375 -1.796875q-1.03125 -0.75 -2.1875 -1.203125q-1.140625 -0.453125 -2.265625 -0.453125q-1.671875 0 -3.109375 0.734375q-1.421875 0.71875 -2.4375 1.984375q-1.0 1.265625 -1.5625 2.890625q-0.5625 1.625 -0.5625 3.359375q0 1.84375 0.609375 3.421875q0.625 1.5625 1.6875 2.734375q1.0625 1.171875 2.546875 1.84375q1.484375 0.671875 3.28125 0.671875zm22.01062 5.828125l0 -29.34375l7.5 0l0 29.34375l-7.5 0zm0 -33.4375l0 -7.4375l7.5 0l0 7.4375l-7.5 0zm31.858124 31.921875q-1.515625 0.671875 -3.703125 1.34375q-2.171875 0.671875 -4.578125 0.671875q-1.578125 0 -2.953125 -0.390625q-1.359375 -0.390625 -2.40625 -1.25q-1.03125 -0.875 -1.65625 -2.25q-0.609375 -1.375 -0.609375 -3.328125l0 -16.859375l-3.859375 0l0 -5.765625l3.859375 0l0 -9.515625l7.5 0l0 9.515625l6.171875 0l0 5.765625l-6.171875 0l0 14.34375q0 1.5625 0.8125 2.203125q0.8125 0.640625 2.0 0.640625q1.171875 0 2.28125 -0.390625q1.125 -0.390625 1.796875 -0.671875l1.515625 5.9375zm3.9258728 1.515625l0 -29.34375l7.5 0l0 29.34375l-7.5 0zm0 -33.4375l0 -7.4375l7.5 0l0 7.4375l-7.5 0zm27.826874 34.0q-3.578125 0 -6.4375 -1.234375q-2.859375 -1.234375 -4.84375 -3.328125q-1.984375 -2.109375 -3.0625 -4.84375q-1.0625 -2.75 -1.0625 -5.765625q0 -3.09375 1.0625 -5.828125q1.078125 -2.75 3.0625 -4.84375q1.984375 -2.109375 4.84375 -3.328125q2.859375 -1.234375 6.4375 -1.234375q3.578125 0 6.40625 1.234375q2.828125 1.21875 4.8125 3.328125q2.0 2.09375 3.0625 4.84375q1.0625 2.734375 1.0625 5.828125q0 3.015625 -1.0625 5.765625q-1.0625 2.734375 -3.03125 4.84375q-1.953125 2.09375 -4.8125 3.328125q-2.859375 1.234375 -6.4375 1.234375zm-7.671875 -15.171875q0 1.953125 0.578125 3.546875q0.59375 1.59375 1.625 2.78125q1.046875 1.171875 2.4375 1.8125q1.40625 0.640625 3.03125 0.640625q1.625 0 3.015625 -0.640625q1.40625 -0.640625 2.4375 -1.8125q1.046875 -1.1875 1.625 -2.8125q0.59375 -1.625 0.59375 -3.578125q0 -1.90625 -0.59375 -3.53125q-0.578125 -1.625 -1.625 -2.796875q-1.03125 -1.171875 -2.4375 -1.8125q-1.390625 -0.65625 -3.015625 -0.65625q-1.625 0 -3.03125 0.671875q-1.390625 0.671875 -2.4375 1.859375q-1.03125 1.171875 -1.625 2.796875q-0.578125 1.625 -0.578125 3.53125zm55.3266 14.609375l-7.5 0l0 -16.46875q0 -3.515625 -1.234375 -5.140625q-1.234375 -1.625 -3.421875 -1.625q-1.109375 0 -2.296875 0.453125q-1.171875 0.4375 -2.21875 1.25q-1.03125 0.8125 -1.875 1.9375q-0.828125 1.109375 -1.21875 2.453125l0 17.140625l-7.5 0l0 -29.34375l6.765625 0l0 5.4375q1.625 -2.8125 4.703125 -4.375q3.078125 -1.5625 6.953125 -1.5625q2.734375 0 4.46875 1.015625q1.75 1.0 2.6875 2.625q0.953125 1.625 1.3125 3.703125q0.375 2.0625 0.375 4.1875l0 18.3125zm14.55838 0.5625q-2.125 0 -3.984375 -0.703125q-1.84375 -0.703125 -3.1875 -1.953125q-1.34375 -1.265625 -2.09375 -2.9375q-0.75 -1.6875 -0.75 -3.703125q0 -2.078125 0.921875 -3.84375q0.921875 -1.765625 2.5625 -2.984375q1.65625 -1.234375 3.953125 -1.9375q2.296875 -0.703125 5.046875 -0.703125q1.953125 0 3.828125 0.34375q1.8749695 0.328125 3.3437195 0.953125l0 -1.6875q0 -2.90625 -1.65625 -4.46875q-1.6562195 -1.578125 -4.9062195 -1.578125q-2.34375 0 -4.59375 0.84375q-2.234375 0.84375 -4.59375 2.453125l-2.28125 -4.75q5.65625 -3.75 12.203125 -3.75q6.3280945 0 9.8280945 3.109375q3.5 3.109375 3.5 8.984375l0 9.125q0 1.171875 0.421875 1.6875q0.421875 0.5 1.375 0.546875l0 6.390625q-1.90625 0.390625 -3.3125 0.390625q-2.125 0 -3.28125 -0.953125q-1.140625 -0.953125 -1.421875 -2.515625l-0.171875 -1.625q-1.953125 2.578125 -4.7655945 3.921875q-2.796875 1.34375 -5.984375 1.34375zm2.125 -5.484375q1.90625 0 3.609375 -0.671875q1.7187195 -0.671875 2.6718445 -1.796875q1.234375 -0.953125 1.234375 -2.125l0 -3.359375q-1.34375 -0.515625 -2.921875 -0.8125q-1.5624695 -0.3125 -3.0155945 -0.3125q-2.921875 0 -4.765625 1.3125q-1.84375 1.3125 -1.84375 3.328125q0 1.90625 1.453125 3.171875q1.453125 1.265625 3.578125 1.265625zm21.956482 -35.953125l7.5 0l0 31.46875q0 1.625 0.78125 2.53125q0.796875 0.890625 2.25 0.890625q0.671875 0 1.484375 -0.21875q0.8125 -0.234375 1.53125 -0.578125l1.015625 5.71875q-1.515625 0.71875 -3.53125 1.109375q-2.015625 0.40625 -3.640625 0.40625q-3.53125 0 -5.46875 -1.875q-1.921875 -1.875 -1.921875 -5.359375l0 -34.09375z" fill-rule="nonzero"/><path fill="#000000" fill-opacity="0.0" d="m507.84778 35.593174l0 567.7165" fill-rule="evenodd"/><path stroke="#6d6fb0" stroke-width="8.0" stroke-linejoin="round" stroke-linecap="butt" d="m507.84778 35.593174l0 567.7165" fill-rule="evenodd"/><path fill="#000000" fill-opacity="0.0" d="m388.4462 513.82806l62.771637 0" fill-rule="evenodd"/><path stroke="#6d6fb0" stroke-width="12.0" stroke-linejoin="round" stroke-linecap="butt" d="m388.4462 513.82806l62.771637 0" fill-rule="evenodd"/><path fill="#000000" fill-opacity="0.0" d="m785.6316 325.78302l-36.59839 93.921265" fill-rule="evenodd"/><path stroke="#bcc3cd" stroke-width="8.0" stroke-linejoin="round" stroke-linecap="butt" d="m785.6316 325.78302l-36.59839 93.921265" fill-rule="evenodd"/><path fill="#f1e28b" d="m725.5462 421.50204l0 0c-2.0351562 -12.724274 6.630066 -24.689209 19.35437 -26.724396l0 0c6.1104126 -0.97732544 12.358765 0.51272583 17.370605 4.1423645c5.01178 3.6296387 8.376465 9.101532 9.35376 15.211975l0 0c2.0352173 12.724274 -6.630005 24.689209 -19.35431 26.724396l0 0c-12.724304 2.0351868 -24.689209 -6.6300354 -26.724426 -19.35434z" fill-rule="evenodd"/><path stroke="#2c2d7a" stroke-width="4.0" stroke-linejoin="round" stroke-linecap="butt" d="m725.5462 421.50204l0 0c-2.0351562 -12.724274 6.630066 -24.689209 19.35437 -26.724396l0 0c6.1104126 -0.97732544 12.358765 0.51272583 17.370605 4.1423645c5.01178 3.6296387 8.376465 9.101532 9.35376 15.211975l0 0c2.0352173 12.724274 -6.630005 24.689209 -19.35431 26.724396l0 0c-12.724304 2.0351868 -24.689209 -6.6300354 -26.724426 -19.35434z" fill-rule="evenodd"/><path fill="#000000" fill-opacity="0.0" d="m783.9189 343.23273l42.677185 72.75592" fill-rule="evenodd"/><path stroke="#bcc3cd" stroke-width="8.0" stroke-linejoin="round" stroke-linecap="butt" d="m783.9189 343.23273l42.677185 72.75592" fill-rule="evenodd"/><path fill="#f1e28b" d="m815.66675 436.95013l0 0c-11.384888 -6.0446777 -15.713989 -20.174133 -9.6692505 -31.559052l0 0c2.902771 -5.4671936 7.8584595 -9.557373 13.7769165 -11.370728c5.918457 -1.8133545 12.31488 -1.2013245 17.782104 1.7014465l0 0c11.384888 6.0446777 15.713989 20.174164 9.669312 31.559052l0 0c-6.0446777 11.384888 -20.174194 15.713989 -31.559082 9.669281z" fill-rule="evenodd"/><path stroke="#2c2d7a" stroke-width="4.0" stroke-linejoin="round" stroke-linecap="butt" d="m815.66675 436.95013l0 0c-11.384888 -6.0446777 -15.713989 -20.174133 -9.6692505 -31.559052l0 0c2.902771 -5.4671936 7.8584595 -9.557373 13.7769165 -11.370728c5.918457 -1.8133545 12.31488 -1.2013245 17.782104 1.7014465l0 0c11.384888 6.0446777 15.713989 20.174164 9.669312 31.559052l0 0c-6.0446777 11.384888 -20.174194 15.713989 -31.559082 9.669281z" fill-rule="evenodd"/><path fill="#000000" fill-opacity="0.0" d="m627.7067 328.0018l39.748047 92.66141" fill-rule="evenodd"/><path stroke="#bcc3cd" stroke-width="8.0" stroke-linejoin="round" stroke-linecap="butt" d="m627.7067 328.0018l39.748047 92.66141" fill-rule="evenodd"/><path fill="#f1e28b" d="m649.0453 435.10657l0 0c-10.36731 -7.6450195 -12.574158 -22.246857 -4.929138 -32.614166l0 0c3.6712646 -4.978546 9.169922 -8.2948 15.286255 -9.219177c6.116333 -0.92440796 12.349365 0.6187744 17.327942 4.290039l0 0c10.36731 7.6450195 12.574158 22.246887 4.929138 32.614166l0 0c-7.6450195 10.36731 -22.246887 12.574158 -32.614197 4.929138z" fill-rule="evenodd"/><path stroke="#2c2d7a" stroke-width="4.0" stroke-linejoin="round" stroke-linecap="butt" d="m649.0453 435.10657l0 0c-10.36731 -7.6450195 -12.574158 -22.246857 -4.929138 -32.614166l0 0c3.6712646 -4.978546 9.169922 -8.2948 15.286255 -9.219177c6.116333 -0.92440796 12.349365 0.6187744 17.327942 4.290039l0 0c10.36731 7.6450195 12.574158 22.246887 4.929138 32.614166l0 0c-7.6450195 10.36731 -22.246887 12.574158 -32.614197 4.929138z" fill-rule="evenodd"/><path fill="#000000" fill-opacity="0.0" d="m637.1945 328.00256l-48.629883 88.28345" fill-rule="evenodd"/><path stroke="#bcc3cd" stroke-width="8.0" stroke-linejoin="round" stroke-linecap="butt" d="m637.1945 328.00256l-48.629883 88.28345" fill-rule="evenodd"/><path fill="#000000" fill-opacity="0.0" d="m630.27484 337.85455l72.15753 -120.28348" fill-rule="evenodd"/><path stroke="#bcc3cd" stroke-width="8.0" stroke-linejoin="round" stroke-linecap="butt" d="m630.27484 337.85455l72.15753 -120.28348" fill-rule="evenodd"/><path fill="#000000" fill-opacity="0.0" d="m779.31775 332.8753l-77.82678 -112.47246" fill-rule="evenodd"/><path stroke="#bcc3cd" stroke-width="8.0" stroke-linejoin="round" stroke-linecap="butt" d="m779.31775 332.8753l-77.82678 -112.47246" fill-rule="evenodd"/><path fill="#f1e28b" d="m665.6458 221.49696l0 0c0 -19.673523 15.948547 -35.622055 35.62201 -35.622055l0 0c9.447571 0 18.508179 3.7530212 25.188599 10.433456c6.68042 6.680435 10.433472 15.741043 10.433472 25.188599l0 0c0 19.673508 -15.948547 35.622055 -35.62207 35.622055l0 0c-19.673462 0 -35.62201 -15.948547 -35.62201 -35.622055z" fill-rule="evenodd"/><path stroke="#2c2d7a" stroke-width="4.0" stroke-linejoin="round" stroke-linecap="butt" d="m665.6458 221.49696l0 0c0 -19.673523 15.948547 -35.622055 35.62201 -35.622055l0 0c9.447571 0 18.508179 3.7530212 25.188599 10.433456c6.68042 6.680435 10.433472 15.741043 10.433472 25.188599l0 0c0 19.673508 -15.948547 35.622055 -35.62207 35.622055l0 0c-19.673462 0 -35.62201 -15.948547 -35.62201 -35.622055z" fill-rule="evenodd"/><path fill="#2c2d7a" d="m686.3693 221.49599l0 0c0 -8.227737 6.669922 -14.897644 14.897644 -14.897644l0 0c3.9511108 0 7.7403564 1.5695801 10.53418 4.3634186c2.7938843 2.7938538 4.3634644 6.58313 4.3634644 10.534225l0 0c0 8.227737 -6.669922 14.897644 -14.897644 14.897644l0 0c-8.227722 0 -14.897644 -6.6699066 -14.897644 -14.897644z" fill-rule="evenodd"/><path fill="#f1e28b" d="m565.46576 416.9646l0 0c-0.34783936 -12.880859 9.812073 -23.604858 22.692932 -23.952759l0 0c6.185608 -0.16708374 12.184204 2.1299133 16.67627 6.385681c4.4920044 4.2557373 7.109436 10.121643 7.2764893 16.30722l0 0c0.3479004 12.880859 -9.812073 23.604858 -22.692932 23.952759l0 0c-12.880798 0.3479004 -23.604858 -9.812073 -23.952759 -22.692902z" fill-rule="evenodd"/><path stroke="#2c2d7a" stroke-width="4.0" stroke-linejoin="round" stroke-linecap="butt" d="m565.46576 416.9646l0 0c-0.34783936 -12.880859 9.812073 -23.604858 22.692932 -23.952759l0 0c6.185608 -0.16708374 12.184204 2.1299133 16.67627 6.385681c4.4920044 4.2557373 7.109436 10.121643 7.2764893 16.30722l0 0c0.3479004 12.880859 -9.812073 23.604858 -22.692932 23.952759l0 0c-12.880798 0.3479004 -23.604858 -9.812073 -23.952759 -22.692902z" fill-rule="evenodd"/><path fill="#f1e28b" d="m756.28564 331.53525l0 0c1.5916138 -12.793854 13.253357 -21.875092 26.047241 -20.283447l0 0c6.143799 0.76431274 11.732361 3.9379578 15.536255 8.822784c3.803894 4.884796 5.5115356 11.080627 4.7471924 17.224457l0 0c-1.5916138 12.793854 -13.253357 21.875092 -26.047241 20.283447l0 0c-12.793884 -1.5916138 -21.875122 -13.253357 -20.283447 -26.047241z" fill-rule="evenodd"/><path stroke="#2c2d7a" stroke-width="4.0" stroke-linejoin="round" stroke-linecap="butt" d="m756.28564 331.53525l0 0c1.5916138 -12.793854 13.253357 -21.875092 26.047241 -20.283447l0 0c6.143799 0.76431274 11.732361 3.9379578 15.536255 8.822784c3.803894 4.884796 5.5115356 11.080627 4.7471924 17.224457l0 0c-1.5916138 12.793854 -13.253357 21.875092 -26.047241 20.283447l0 0c-12.793884 -1.5916138 -21.875122 -13.253357 -20.283447 -26.047241z" fill-rule="evenodd"/><path fill="#2c2d7a" d="m761.6946 332.3576l0 0c1.2176514 -9.793274 10.143738 -16.745209 19.937012 -15.527557l0 0c4.702881 0.5847168 8.980896 3.0137024 11.892883 6.7526245c2.9119873 3.738922 4.2194214 8.481476 3.6347046 13.184357l0 0c-1.2176514 9.793274 -10.143738 16.745209 -19.937012 15.527557l0 0c-9.793274 -1.2176208 -16.745178 -10.143738 -15.527588 -19.936981z" fill-rule="evenodd"/><path fill="#f1e28b" d="m765.5098 332.82526l0 0c0.9567261 -7.6798096 7.958008 -13.129944 15.637817 -12.173218l0 0c3.6879883 0.45941162 7.0423584 2.3650818 9.325317 5.2977295c2.282898 2.9326477 3.307312 6.6520996 2.8479004 10.340057l0 0c-0.9567261 7.6798096 -7.958008 13.129944 -15.637817 12.173218l0 0c-7.6797485 -0.95669556 -13.129944 -7.9579773 -12.173218 -15.637787z" fill-rule="evenodd"/><path fill="#f1e28b" d="m607.9894 338.91077l0 0c0 -12.889557 10.449036 -23.338593 23.338562 -23.338593l0 0c6.1897583 0 12.126038 2.4588928 16.502869 6.835724c4.376831 4.376831 6.8356934 10.31308 6.8356934 16.502869l0 0c0 12.889526 -10.449036 23.338562 -23.338562 23.338562l0 0c-12.889526 0 -23.338562 -10.449036 -23.338562 -23.338562z" fill-rule="evenodd"/><path stroke="#2c2d7a" stroke-width="4.0" stroke-linejoin="round" stroke-linecap="butt" d="m607.9894 338.91077l0 0c0 -12.889557 10.449036 -23.338593 23.338562 -23.338593l0 0c6.1897583 0 12.126038 2.4588928 16.502869 6.835724c4.376831 4.376831 6.8356934 10.31308 6.8356934 16.502869l0 0c0 12.889526 -10.449036 23.338562 -23.338562 23.338562l0 0c-12.889526 0 -23.338562 -10.449036 -23.338562 -23.338562z" fill-rule="evenodd"/><path fill="#2c2d7a" d="m613.4583 339.0685l0 0c0 -9.8715515 8.002502 -17.874023 17.874023 -17.874023l0 0c4.7404785 0 9.286804 1.8831482 12.638855 5.235199c3.3520508 3.3520203 5.2351685 7.898346 5.2351685 12.638824l0 0c0 9.8715515 -8.002441 17.874023 -17.874023 17.874023l0 0c-9.871521 0 -17.874023 -8.002472 -17.874023 -17.874023z" fill-rule="evenodd"/><path fill="#f1e28b" d="m617.30646 339.0584l0 0c0 -7.740692 6.2750854 -14.015747 14.015747 -14.015747l0 0c3.7172241 0 7.2821655 1.476654 9.910645 4.1051025c2.628479 2.628479 4.1051025 6.1934204 4.1051025 9.910645l0 0c0 7.7406616 -6.2750244 14.015747 -14.015747 14.015747l0 0c-7.7406616 0 -14.015747 -6.2750854 -14.015747 -14.015747z" fill-rule="evenodd"/><path fill="#f1e28b" d="m343.84424 418.9919l0 0c-2.9919128 -12.532928 4.7426453 -25.118317 17.275604 -28.11023l0 0c6.018524 -1.4367676 12.361298 -0.42382812 17.632996 2.815979c5.271698 3.2398071 9.040466 8.441071 10.477234 14.459625l0 0c2.9919128 12.532928 -4.7426453 25.118317 -17.275604 28.11023l0 0c-12.532928 2.9919128 -25.118317 -4.7426453 -28.11023 -17.275604z" fill-rule="evenodd"/><path stroke="#2c2d7a" stroke-width="4.0" stroke-linejoin="round" stroke-linecap="butt" d="m343.84424 418.9919l0 0c-2.9919128 -12.532928 4.7426453 -25.118317 17.275604 -28.11023l0 0c6.018524 -1.4367676 12.361298 -0.42382812 17.632996 2.815979c5.271698 3.2398071 9.040466 8.441071 10.477234 14.459625l0 0c2.9919128 12.532928 -4.7426453 25.118317 -17.275604 28.11023l0 0c-12.532928 2.9919128 -25.118317 -4.7426453 -28.11023 -17.275604z" fill-rule="evenodd"/><path fill="#f1e28b" d="m430.07095 434.189l0 0c-11.384888 -6.0446777 -15.713959 -20.174164 -9.669281 -31.559052l0 0c2.902771 -5.467224 7.85849 -9.557404 13.776947 -11.370758c5.9184875 -1.813324 12.31488 -1.201294 17.782104 1.701477l0 0c11.384888 6.0446777 15.713989 20.174133 9.669312 31.559052l0 0c-6.0447083 11.384888 -20.174164 15.713959 -31.559082 9.669281z" fill-rule="evenodd"/><path stroke="#2c2d7a" stroke-width="4.0" stroke-linejoin="round" stroke-linecap="butt" d="m430.07095 434.189l0 0c-11.384888 -6.0446777 -15.713959 -20.174164 -9.669281 -31.559052l0 0c2.902771 -5.467224 7.85849 -9.557404 13.776947 -11.370758c5.9184875 -1.813324 12.31488 -1.201294 17.782104 1.701477l0 0c11.384888 6.0446777 15.713989 20.174133 9.669312 31.559052l0 0c-6.0447083 11.384888 -20.174164 15.713959 -31.559082 9.669281z" fill-rule="evenodd"/><path fill="#f1e28b" d="m269.30908 432.34543l0 0c-10.36731 -7.6450195 -12.574158 -22.246887 -4.929138 -32.614197l0 0c3.6712646 -4.978546 9.169891 -8.294769 15.286224 -9.219177c6.1163635 -0.92437744 12.349396 0.61880493 17.327942 4.2900696l0 0c10.36731 7.644989 12.574158 22.246857 4.929138 32.614166l0 0c-7.644989 10.367279 -22.246857 12.574127 -32.614166 4.929138z" fill-rule="evenodd"/><path stroke="#2c2d7a" stroke-width="4.0" stroke-linejoin="round" stroke-linecap="butt" d="m269.30908 432.34543l0 0c-10.36731 -7.6450195 -12.574158 -22.246887 -4.929138 -32.614197l0 0c3.6712646 -4.978546 9.169891 -8.294769 15.286224 -9.219177c6.1163635 -0.92437744 12.349396 0.61880493 17.327942 4.2900696l0 0c10.36731 7.644989 12.574158 22.246857 4.929138 32.614166l0 0c-7.644989 10.367279 -22.246857 12.574127 -32.614166 4.929138z" fill-rule="evenodd"/><path fill="#f1e28b" d="m210.88858 210.9904l0 0c0 -19.673523 15.948532 -35.622055 35.62204 -35.622055l0 0c9.447556 0 18.508179 3.7530212 25.188599 10.433456c6.68042 6.680435 10.433441 15.741043 10.433441 25.188599l0 0c0 19.673508 -15.948517 35.62204 -35.62204 35.62204l0 0c-19.673508 0 -35.62204 -15.948532 -35.62204 -35.62204z" fill-rule="evenodd"/><path stroke="#2c2d7a" stroke-width="4.0" stroke-linejoin="round" stroke-linecap="butt" d="m210.88858 210.9904l0 0c0 -19.673523 15.948532 -35.622055 35.62204 -35.622055l0 0c9.447556 0 18.508179 3.7530212 25.188599 10.433456c6.68042 6.680435 10.433441 15.741043 10.433441 25.188599l0 0c0 19.673508 -15.948517 35.62204 -35.62204 35.62204l0 0c-19.673508 0 -35.62204 -15.948532 -35.62204 -35.62204z" fill-rule="evenodd"/><path fill="#2c2d7a" d="m231.6121 210.98943l0 0c0 -8.227737 6.6698914 -14.897644 14.897629 -14.897644l0 0c3.9510956 0 7.7403717 1.5695801 10.53421 4.3634186c2.7938538 2.7938538 4.363434 6.58313 4.363434 10.534225l0 0c0 8.227737 -6.6699066 14.897644 -14.897644 14.897644l0 0c-8.227737 0 -14.897629 -6.6699066 -14.897629 -14.897644z" fill-rule="evenodd"/><path fill="#f1e28b" d="m180.60095 414.20343l0 0c-0.34788513 -12.880829 9.812073 -23.604858 22.692917 -23.952759l0 0c6.185608 -0.16705322 12.184219 2.1299438 16.676239 6.385681c4.4920044 4.255768 7.1094513 10.121643 7.27652 16.307251l0 0c0.3479004 12.880829 -9.812073 23.604858 -22.692917 23.952759l0 0c-12.880844 0.34786987 -23.604858 -9.812073 -23.952759 -22.692932z" fill-rule="evenodd"/><path stroke="#2c2d7a" stroke-width="4.0" stroke-linejoin="round" stroke-linecap="butt" d="m180.60095 414.20343l0 0c-0.34788513 -12.880829 9.812073 -23.604858 22.692917 -23.952759l0 0c6.185608 -0.16705322 12.184219 2.1299438 16.676239 6.385681c4.4920044 4.255768 7.1094513 10.121643 7.27652 16.307251l0 0c0.3479004 12.880829 -9.812073 23.604858 -22.692917 23.952759l0 0c-12.880844 0.34786987 -23.604858 -9.812073 -23.952759 -22.692932z" fill-rule="evenodd"/><path fill="#f1e28b" d="m121.09911 432.34543l0 0c-10.367302 -7.6450195 -12.57415 -22.246887 -4.929138 -32.614197l0 0c3.6712646 -4.978546 9.169884 -8.294769 15.286232 -9.219177c6.1163483 -0.92437744 12.349396 0.61880493 17.327942 4.2900696l0 0c10.367294 7.644989 12.574142 22.246857 4.929138 32.614166l0 0c-7.6450195 10.367279 -22.246872 12.574127 -32.614174 4.929138z" fill-rule="evenodd"/><path stroke="#2c2d7a" stroke-width="4.0" stroke-linejoin="round" stroke-linecap="butt" d="m121.09911 432.34543l0 0c-10.367302 -7.6450195 -12.57415 -22.246887 -4.929138 -32.614197l0 0c3.6712646 -4.978546 9.169884 -8.294769 15.286232 -9.219177c6.1163483 -0.92437744 12.349396 0.61880493 17.327942 4.2900696l0 0c10.367294 7.644989 12.574142 22.246857 4.929138 32.614166l0 0c-7.6450195 10.367279 -22.246872 12.574127 -32.614174 4.929138z" fill-rule="evenodd"/><path fill="#f1e28b" d="m31.642952 414.20343l0 0c-0.34789658 -12.880829 9.812065 -23.604858 22.692913 -23.952759l0 0c6.1856003 -0.16705322 12.184223 2.1299438 16.676235 6.385681c4.492012 4.255768 7.1094513 10.121643 7.27652 16.307251l0 0c0.3479004 12.880829 -9.812065 23.604858 -22.692913 23.952759l0 0c-12.880844 0.34786987 -23.60486 -9.812073 -23.952755 -22.692932z" fill-rule="evenodd"/><path stroke="#2c2d7a" stroke-width="4.0" stroke-linejoin="round" stroke-linecap="butt" d="m31.642952 414.20343l0 0c-0.34789658 -12.880829 9.812065 -23.604858 22.692913 -23.952759l0 0c6.1856003 -0.16705322 12.184223 2.1299438 16.676235 6.385681c4.492012 4.255768 7.1094513 10.121643 7.27652 16.307251l0 0c0.3479004 12.880829 -9.812065 23.604858 -22.692913 23.952759l0 0c-12.880844 0.34786987 -23.60486 -9.812073 -23.952755 -22.692932z" fill-rule="evenodd"/><path fill="#f1e28b" d="m827.3505 63.702557l0 0c0 -14.385273 11.66156 -26.04684 26.046814 -26.04684l0 0c6.908081 0 13.533203 2.744213 18.417908 7.6289406c4.8847656 4.8847313 7.6289673 11.509846 7.6289673 18.4179l0 0c0 14.385273 -11.66156 26.04684 -26.046875 26.04684l0 0c-14.385254 0 -26.046814 -11.661568 -26.046814 -26.04684z" fill-rule="evenodd"/><path stroke="#2c2d7a" stroke-width="4.0" stroke-linejoin="round" stroke-linecap="butt" d="m827.3505 63.702557l0 0c0 -14.385273 11.66156 -26.04684 26.046814 -26.04684l0 0c6.908081 0 13.533203 2.744213 18.417908 7.6289406c4.8847656 4.8847313 7.6289673 11.509846 7.6289673 18.4179l0 0c0 14.385273 -11.66156 26.04684 -26.046875 26.04684l0 0c-14.385254 0 -26.046814 -11.661568 -26.046814 -26.04684z" fill-rule="evenodd"/><path fill="#2c2d7a" d="m842.50354 63.701843l0 0c0 -6.016121 4.877014 -10.89315 10.893188 -10.89315l0 0c2.889038 0 5.659729 1.1476669 7.7025757 3.1905289c2.0429077 2.042862 3.1905518 4.8135796 3.1905518 7.7026215l0 0c0 6.016121 -4.877014 10.893158 -10.893127 10.893158l0 0c-6.0161743 0 -10.893188 -4.877037 -10.893188 -10.893158z" fill-rule="evenodd"/><path fill="#000000" fill-opacity="0.0" d="m885.74384 35.591934l158.36224 0l0 56.220474l-158.36224 0z" fill-rule="evenodd"/><path fill="#f1e28b" d="m901.6501 70.45756q-1.765625 0 -3.453125 -0.5625q-1.671875 -0.5625 -2.859375 -1.59375l1.328125 -2.234375q1.28125 0.90625 2.484375 1.375q1.21875 0.453125 2.421875 0.453125q1.0625 0 1.671875 -0.390625q0.609375 -0.40625 0.609375 -1.15625q0 -0.734375 -0.71875 -1.078125q-0.71875 -0.359375 -2.34375 -0.8125q-1.359375 -0.375 -2.328125 -0.71875q-0.953125 -0.34375 -1.546875 -0.78125q-0.578125 -0.4375 -0.84375 -1.015625q-0.265625 -0.578125 -0.265625 -1.375q0 -1.0625 0.40625 -1.90625q0.421875 -0.859375 1.171875 -1.453125q0.75 -0.609375 1.75 -0.921875q1.0 -0.328125 2.171875 -0.328125q1.5625 0 2.9375 0.453125q1.375 0.453125 2.515625 1.46875l-1.4375 2.15625q-1.0625 -0.796875 -2.0625 -1.171875q-1.0 -0.375 -1.984375 -0.375q-0.90625 0 -1.53125 0.375q-0.609375 0.375 -0.609375 1.203125q0 0.375 0.140625 0.609375q0.15625 0.234375 0.46875 0.421875q0.328125 0.1875 0.84375 0.359375q0.53125 0.171875 1.296875 0.359375q1.4375 0.375 2.46875 0.75q1.03125 0.375 1.671875 0.859375q0.65625 0.46875 0.96875 1.109375q0.3125 0.625 0.3125 1.5q0 2.046875 -1.53125 3.234375q-1.515625 1.1875 -4.125 1.1875zm14.451233 0q-1.6875 0 -3.046875 -0.5625q-1.359375 -0.578125 -2.328125 -1.5625q-0.953125 -1.0 -1.46875 -2.296875q-0.515625 -1.3125 -0.515625 -2.75q0 -1.484375 0.5 -2.796875q0.515625 -1.328125 1.46875 -2.328125q0.953125 -1.0 2.328125 -1.578125q1.375 -0.59375 3.078125 -0.59375q1.71875 0 3.0625 0.59375q1.34375 0.578125 2.28125 1.5625q0.953125 0.984375 1.4375 2.296875q0.5 1.296875 0.5 2.71875q0 0.34375 -0.015625 0.671875q-0.015625 0.3125 -0.0625 0.515625l-10.796875 0q0.078125 0.828125 0.390625 1.46875q0.328125 0.640625 0.828125 1.09375q0.515625 0.453125 1.15625 0.703125q0.640625 0.234375 1.328125 0.234375q1.0625 0 2.015625 -0.515625q0.953125 -0.53125 1.296875 -1.375l3.0625 0.84375q-0.78125 1.609375 -2.46875 2.640625q-1.6875 1.015625 -4.03125 1.015625zm3.625 -8.421875q-0.140625 -1.578125 -1.171875 -2.515625q-1.015625 -0.953125 -2.484375 -0.953125q-0.71875 0 -1.34375 0.265625q-0.625 0.25 -1.109375 0.703125q-0.484375 0.453125 -0.796875 1.09375q-0.296875 0.625 -0.34375 1.40625l7.25 0zm14.170166 -2.71875q-1.625 0.03125 -2.90625 0.625q-1.28125 0.59375 -1.828125 1.796875l0 8.453125l-3.578125 0l0 -13.96875l3.28125 0l0 2.984375q0.375 -0.71875 0.875 -1.28125q0.515625 -0.578125 1.09375 -1.0q0.59375 -0.4375 1.1875 -0.65625q0.59375 -0.234375 1.15625 -0.234375q0.296875 0 0.4375 0q0.15625 0 0.28125 0.03125l0 3.25zm5.769043 10.875l-5.15625 -13.96875l3.6875 0l3.546875 11.0625l3.5625 -11.0625l3.359375 0l-5.140625 13.96875l-3.859375 0zm16.872986 0.265625q-1.6875 0 -3.046875 -0.5625q-1.359375 -0.578125 -2.328125 -1.5625q-0.953125 -1.0 -1.46875 -2.296875q-0.515625 -1.3125 -0.515625 -2.75q0 -1.484375 0.5 -2.796875q0.515625 -1.328125 1.46875 -2.328125q0.953125 -1.0 2.328125 -1.578125q1.375 -0.59375 3.078125 -0.59375q1.71875 0 3.0625 0.59375q1.34375 0.578125 2.28125 1.5625q0.953125 0.984375 1.4375 2.296875q0.5 1.296875 0.5 2.71875q0 0.34375 -0.015625 0.671875q-0.015625 0.3125 -0.0625 0.515625l-10.796875 0q0.078125 0.828125 0.390625 1.46875q0.328125 0.640625 0.828125 1.09375q0.515625 0.453125 1.15625 0.703125q0.640625 0.234375 1.328125 0.234375q1.0625 0 2.015625 -0.515625q0.953125 -0.53125 1.296875 -1.375l3.0625 0.84375q-0.78125 1.609375 -2.46875 2.640625q-1.6875 1.015625 -4.03125 1.015625zm3.625 -8.421875q-0.140625 -1.578125 -1.171875 -2.515625q-1.015625 -0.953125 -2.484375 -0.953125q-0.71875 0 -1.34375 0.265625q-0.625 0.25 -1.109375 0.703125q-0.484375 0.453125 -0.796875 1.09375q-0.296875 0.625 -0.34375 1.40625l7.25 0zm14.170166 -2.71875q-1.625 0.03125 -2.90625 0.625q-1.28125 0.59375 -1.828125 1.796875l0 8.453125l-3.578125 0l0 -13.96875l3.28125 0l0 2.984375q0.375 -0.71875 0.875 -1.28125q0.515625 -0.578125 1.09375 -1.0q0.59375 -0.4375 1.1875 -0.65625q0.59375 -0.234375 1.15625 -0.234375q0.296875 0 0.4375 0q0.15625 0 0.28125 0.03125l0 3.25z" fill-rule="nonzero"/><path fill="#f1e28b" d="m832.09204 121.363846l0 0c1.4611816 -11.767578 12.185181 -20.122581 23.952759 -18.661415l0 0c5.651001 0.7016754 10.791809 3.6194534 14.291504 8.111473c3.4996948 4.492012 5.071594 10.190292 4.369934 15.841278l0 0c-1.4611816 11.767578 -12.185181 20.12259 -23.952759 18.661423l0 0c-11.767578 -1.4611664 -20.12262 -12.185181 -18.661438 -23.952759z" fill-rule="evenodd"/><path stroke="#2c2d7a" stroke-width="4.0" stroke-linejoin="round" stroke-linecap="butt" d="m832.09204 121.363846l0 0c1.4611816 -11.767578 12.185181 -20.122581 23.952759 -18.661415l0 0c5.651001 0.7016754 10.791809 3.6194534 14.291504 8.111473c3.4996948 4.492012 5.071594 10.190292 4.369934 15.841278l0 0c-1.4611816 11.767578 -12.185181 20.12259 -23.952759 18.661423l0 0c-11.767578 -1.4611664 -20.12262 -12.185181 -18.661438 -23.952759z" fill-rule="evenodd"/><path fill="#2c2d7a" d="m837.05756 122.108376l0 0c1.1219482 -9.001808 9.328918 -15.389687 18.330688 -14.267715l0 0c4.322815 0.5387802 8.254578 2.7727356 10.930298 6.210411c2.6757202 3.4376755 3.8762207 7.7974777 3.3374023 12.120293l0 0c-1.1219482 9.001808 -9.328857 15.389687 -18.330688 14.267723l0 0c-9.001831 -1.1219635 -15.389648 -9.328903 -14.2677 -18.330711z" fill-rule="evenodd"/><path fill="#f1e28b" d="m840.5725 122.545685l0 0c0.87841797 -7.0622864 7.315674 -12.075287 14.37793 -11.196854l0 0c3.3914185 0.42184448 6.4763794 2.173645 8.576233 4.8700333c2.0997925 2.6963882 3.0424805 6.116493 2.6206055 9.507919l0 0c-0.87841797 7.062294 -7.315674 12.0752945 -14.37793 11.196846l0 0c-7.062317 -0.8784332 -12.075317 -7.3156586 -11.196838 -14.377945z" fill-rule="evenodd"/><path fill="#000000" fill-opacity="0.0" d="m885.74384 95.89902l158.36224 0l0 56.220474l-158.36224 0z" fill-rule="evenodd"/><path fill="#f1e28b" d="m909.3532 130.49902l-3.578125 0l0 -7.8437576q0 -1.640625 -0.609375 -2.421875q-0.609375 -0.796875 -1.734375 -0.796875q-0.484375 0 -1.015625 0.21875q-0.53125 0.203125 -1.015625 0.59375q-0.46875 0.390625 -0.875 0.921875q-0.390625 0.53125 -0.578125 1.171875l0 8.156258l-3.578125 0l0 -19.453133l3.578125 0l0 8.078125q0.765625 -1.359375 2.078125 -2.09375q1.328125 -0.734375 2.921875 -0.734375q1.359375 0 2.21875 0.46875q0.859375 0.453125 1.328125 1.234375q0.484375 0.765625 0.671875 1.765625q0.1875 0.984375 0.1875 2.015625l0 8.718758zm7.381592 0.265625q-2.15625 0 -3.28125 -1.375q-1.109375 -1.3906326 -1.109375 -4.1093826l0 -8.75l3.5625 0l0 7.96875q0 3.234375 2.328125 3.234375q1.03125 0 2.0 -0.625q0.984375 -0.640625 1.59375 -1.90625l0 -8.671875l3.5625 0l0 9.859375q0 0.5625 0.203125 0.8125q0.203125 0.234375 0.65625 0.265625l0 3.0312576q-0.53125 0.109375 -0.890625 0.125q-0.359375 0.03125 -0.65625 0.03125q-0.953125 0 -1.5625 -0.4375q-0.59375 -0.4375 -0.703125 -1.21875l-0.078125 -1.1093826q-0.9375 1.4375076 -2.40625 2.1562576q-1.453125 0.71875 -3.21875 0.71875zm20.145325 0q-1.59375 0 -2.84375 -0.71875q-1.25 -0.71875 -1.96875 -1.96875l0 2.421875l-3.125 0l0 -19.453133l3.578125 0l0 7.9375q0.734375 -1.28125 1.953125 -1.984375q1.21875 -0.703125 2.84375 -0.703125q1.359375 0 2.46875 0.59375q1.125 0.578125 1.9375 1.5625q0.8125 0.984375 1.25 2.328125q0.4375 1.328125 0.4375 2.78125q0 1.53125 -0.5 2.84375q-0.484375 1.296875 -1.359375 2.2656326q-0.875 0.96875 -2.078125 1.53125q-1.203125 0.5625 -2.59375 0.5625zm-0.984375 -3.0312576q0.859375 0 1.578125 -0.328125q0.71875 -0.34375 1.21875 -0.90625q0.515625 -0.5625 0.796875 -1.296875q0.28125 -0.75 0.28125 -1.609375q0 -0.84375 -0.265625 -1.609375q-0.265625 -0.78125 -0.765625 -1.359375q-0.5 -0.59375 -1.171875 -0.9375q-0.65625 -0.359375 -1.453125 -0.359375q-1.203125 0 -2.15625 0.796875q-0.9375 0.78125 -1.4375 1.921875l0 3.328125q0.1875 0.546875 0.546875 0.96875q0.359375 0.421875 0.8125 0.734375q0.453125 0.296875 0.984375 0.484375q0.53125 0.171875 1.03125 0.171875z" fill-rule="nonzero"/><path fill="#f1e28b" d="m844.10657 196.43434l0 0c-9.671509 -5.1314697 -13.351929 -17.131638 -8.22052 -26.803146l0 0c2.4642334 -4.6444244 6.6725464 -8.11972 11.699097 -9.661362c5.0265503 -1.541626 10.459656 -1.0233307 15.104065 1.4408875l0 0c9.671509 5.1314697 13.351929 17.131638 8.22052 26.803146l0 0c-5.1314697 9.671509 -17.131653 13.351944 -26.803162 8.220474z" fill-rule="evenodd"/><path stroke="#2c2d7a" stroke-width="4.0" stroke-linejoin="round" stroke-linecap="butt" d="m844.10657 196.43434l0 0c-9.671509 -5.1314697 -13.351929 -17.131638 -8.22052 -26.803146l0 0c2.4642334 -4.6444244 6.6725464 -8.11972 11.699097 -9.661362c5.0265503 -1.541626 10.459656 -1.0233307 15.104065 1.4408875l0 0c9.671509 5.1314697 13.351929 17.131638 8.22052 26.803146l0 0c-5.1314697 9.671509 -17.131653 13.351944 -26.803162 8.220474z" fill-rule="evenodd"/><path fill="#000000" fill-opacity="0.0" d="m885.74384 147.962l158.36224 0l0 56.220474l-158.36224 0z" fill-rule="evenodd"/><path fill="#f1e28b" d="m909.3532 182.56201l-3.578125 0l0 -7.84375q0 -1.671875 -0.59375 -2.4375q-0.578125 -0.78125 -1.609375 -0.78125q-0.53125 0 -1.09375 0.21875q-0.5625 0.203125 -1.0625 0.59375q-0.484375 0.390625 -0.890625 0.921875q-0.390625 0.53125 -0.578125 1.171875l0 8.15625l-3.578125 0l0 -13.96875l3.21875 0l0 2.59375q0.78125 -1.34375 2.25 -2.078125q1.46875 -0.75 3.296875 -0.75q1.3125 0 2.140625 0.484375q0.828125 0.46875 1.28125 1.25q0.453125 0.765625 0.625 1.75q0.171875 0.984375 0.171875 2.0l0 8.71875zm9.569092 0.265625q-1.703125 0 -3.0625 -0.578125q-1.359375 -0.59375 -2.3125 -1.59375q-0.9375 -1.0 -1.453125 -2.296875q-0.5 -1.3125 -0.5 -2.75q0 -1.46875 0.5 -2.765625q0.515625 -1.3125 1.453125 -2.3125q0.953125 -1.0 2.3125 -1.578125q1.359375 -0.59375 3.0625 -0.59375q1.703125 0 3.046875 0.59375q1.34375 0.578125 2.296875 1.578125q0.953125 1.0 1.453125 2.3125q0.5 1.296875 0.5 2.765625q0 1.4375 -0.5 2.75q-0.5 1.296875 -1.4375 2.296875q-0.9375 1.0 -2.296875 1.59375q-1.359375 0.578125 -3.0625 0.578125zm-3.65625 -7.21875q0 0.921875 0.28125 1.6875q0.28125 0.765625 0.765625 1.328125q0.5 0.546875 1.15625 0.859375q0.671875 0.3125 1.453125 0.3125q0.765625 0 1.4375 -0.3125q0.671875 -0.3125 1.15625 -0.859375q0.5 -0.5625 0.78125 -1.328125q0.28125 -0.78125 0.28125 -1.71875q0 -0.90625 -0.28125 -1.671875q-0.28125 -0.78125 -0.78125 -1.34375q-0.484375 -0.5625 -1.15625 -0.859375q-0.671875 -0.3125 -1.4375 -0.3125q-0.78125 0 -1.453125 0.328125q-0.65625 0.3125 -1.15625 0.875q-0.484375 0.5625 -0.765625 1.34375q-0.28125 0.765625 -0.28125 1.671875zm19.138 7.21875q-1.4375 0 -2.671875 -0.5625q-1.21875 -0.5625 -2.09375 -1.546875q-0.875 -0.984375 -1.375 -2.296875q-0.5 -1.328125 -0.5 -2.84375q0 -1.515625 0.46875 -2.8125q0.46875 -1.3125 1.296875 -2.296875q0.828125 -1.0 1.96875 -1.546875q1.15625 -0.5625 2.515625 -0.5625q1.546875 0 2.78125 0.75q1.234375 0.734375 1.9375 1.9375l0 -7.9375l3.5625 0l0 15.34375q0 0.5625 0.1875 0.8125q0.1875 0.234375 0.640625 0.265625l0 3.03125q-0.9375 0.1875 -1.515625 0.1875q-0.96875 0 -1.578125 -0.46875q-0.609375 -0.484375 -0.6875 -1.265625l-0.078125 -0.875q-0.78125 1.328125 -2.109375 2.015625q-1.3125 0.671875 -2.75 0.671875zm0.9375 -3.03125q0.5 0 1.03125 -0.171875q0.546875 -0.1875 1.0 -0.5q0.453125 -0.328125 0.8125 -0.75q0.359375 -0.421875 0.546875 -0.9375l0 -3.328125q-0.21875 -0.578125 -0.609375 -1.0625q-0.375 -0.5 -0.875 -0.859375q-0.5 -0.375 -1.046875 -0.578125q-0.546875 -0.21875 -1.078125 -0.21875q-0.796875 0 -1.484375 0.359375q-0.671875 0.34375 -1.15625 0.9375q-0.46875 0.59375 -0.734375 1.375q-0.265625 0.765625 -0.265625 1.59375q0 0.875 0.28125 1.625q0.296875 0.75 0.796875 1.3125q0.515625 0.5625 1.21875 0.890625q0.703125 0.3125 1.5625 0.3125zm16.958801 3.03125q-1.6875 0 -3.046875 -0.5625q-1.359375 -0.578125 -2.328125 -1.5625q-0.953125 -1.0 -1.46875 -2.296875q-0.515625 -1.3125 -0.515625 -2.75q0 -1.484375 0.5 -2.796875q0.515625 -1.328125 1.46875 -2.328125q0.953125 -1.0 2.328125 -1.578125q1.375 -0.59375 3.078125 -0.59375q1.71875 0 3.0625 0.59375q1.34375 0.578125 2.28125 1.5625q0.953125 0.984375 1.4375 2.296875q0.5 1.296875 0.5 2.71875q0 0.34375 -0.015625 0.671875q-0.015625 0.3125 -0.0625 0.515625l-10.796875 0q0.078125 0.828125 0.390625 1.46875q0.328125 0.640625 0.828125 1.09375q0.515625 0.453125 1.15625 0.703125q0.640625 0.234375 1.328125 0.234375q1.0625 0 2.015625 -0.515625q0.953125 -0.53125 1.296875 -1.375l3.0625 0.84375q-0.78125 1.609375 -2.46875 2.640625q-1.6875 1.015625 -4.03125 1.015625zm3.625 -8.421875q-0.140625 -1.578125 -1.171875 -2.515625q-1.015625 -0.953125 -2.484375 -0.953125q-0.71875 0 -1.34375 0.265625q-0.625 0.25 -1.109375 0.703125q-0.484375 0.453125 -0.796875 1.09375q-0.296875 0.625 -0.34375 1.40625l7.25 0z" fill-rule="nonzero"/><path fill="#000000" fill-opacity="0.0" d="m554.5846 524.6458l348.44092 0l0 116.629944l-348.44092 0z" fill-rule="evenodd"/><path fill="#f1e28b" d="m566.944 546.5308l7.5 0l0 31.46875q0 1.625 0.78125 2.53125q0.796875 0.890625 2.25 0.890625q0.671875 0 1.484375 -0.21875q0.8125 -0.234375 1.53125 -0.578125l1.015625 5.71875q-1.515625 0.71875 -3.53125 1.109375q-2.015625 0.40625 -3.640625 0.40625q-3.53125 0 -5.46875 -1.875q-1.921875 -1.875 -1.921875 -5.359375l0 -34.09375zm17.814453 40.875l0 -29.34375l7.5 0l0 29.34375l-7.5 0zm0 -33.4375l0 -7.4375l7.5 0l0 7.4375l-7.5 0zm41.545654 33.4375l-7.5 0l0 -16.46875q0 -3.515625 -1.234375 -5.140625q-1.234375 -1.625 -3.421875 -1.625q-1.109375 0 -2.296875 0.453125q-1.171875 0.4375 -2.21875 1.25q-1.03125 0.8125 -1.875 1.9375q-0.828125 1.109375 -1.21875 2.453125l0 17.140625l-7.5 0l0 -29.34375l6.765625 0l0 5.4375q1.625 -2.8125 4.703125 -4.375q3.078125 -1.5625 6.953125 -1.5625q2.734375 0 4.46875 1.015625q1.75 1.0 2.6875 2.625q0.953125 1.625 1.3125 3.703125q0.375 2.0625 0.375 4.1875l0 18.3125zm11.198975 -29.34375l6.328125 9.1875l0.453125 1.0l0.5625 -1.0l6.265625 -9.1875l7.734375 0l-10.484375 14.734375l10.640625 14.609375l-7.71875 0l-6.5 -9.125l-0.5 -0.953125l-0.453125 0.953125l-6.4375 9.125l-7.734375 0l10.59375 -14.609375l-10.421875 -14.734375l7.671875 0z" fill-rule="nonzero"/><path fill="#000000" fill-opacity="0.0" d="m569.8209 518.48627l53.858276 0" fill-rule="evenodd"/><path stroke="#6d6fb0" stroke-width="12.0" stroke-linejoin="round" stroke-linecap="butt" d="m569.8209 518.48627l53.858276 0" fill-rule="evenodd"/></g></svg>