<svg version="1.1" viewBox="0.0 0.0 427.0 450.0" fill="none" stroke="none" stroke-linecap="square" stroke-miterlimit="10" xmlns:xlink="http://www.w3.org/1999/xlink" xmlns="http://www.w3.org/2000/svg"><clipPath id="p.0"><path d="m0 0l427.0 0l0 450.0l-427.0 0l0 -450.0z" clip-rule="nonzero"/></clipPath><g clip-path="url(#p.0)"><path fill="#000000" fill-opacity="0.0" d="m0 0l427.0 0l0 450.0l-427.0 0z" fill-rule="evenodd"/><path fill="#000000" fill-opacity="0.0" d="m20.26274 222.35498c20.357866 -9.971207 81.016 -45.909073 122.1472 -59.827194c41.131195 -13.918137 79.56186 -20.150131 124.639984 -23.68161c45.078156 -3.5314636 121.52402 2.0773315 145.82883 2.4927979" fill-rule="evenodd"/><path stroke="#bcc3cd" stroke-width="24.0" stroke-linejoin="round" stroke-linecap="butt" d="m20.26274 222.35498c20.357866 -9.971207 81.016 -45.909073 122.1472 -59.827194c41.131195 -13.918137 79.56186 -20.150131 124.639984 -23.68161c45.078156 -3.5314636 121.52402 2.0773315 145.82883 2.4927979" fill-rule="evenodd"/><path fill="#000000" fill-opacity="0.0" d="m158.64247 44.379395c-3.1214447 20.52089 -18.307785 77.67645 -18.728714 123.12535c-0.4209137 45.448883 7.007324 105.69945 16.203201 149.56801c9.195877 43.86853 32.476746 94.70267 38.97209 113.64322" fill-rule="evenodd"/><path stroke="#bcc3cd" stroke-width="24.0" stroke-linejoin="round" stroke-linecap="butt" d="m158.64247 44.379395c-3.1214447 20.52089 -18.307785 77.67645 -18.728714 123.12535c-0.4209137 45.448883 7.007324 105.69945 16.203201 149.56801c9.195877 43.86853 32.476746 94.70267 38.97209 113.64322" fill-rule="evenodd"/><path fill="#2c2d7a" d="m132.77429 30.157486l0 0c0 -16.655518 13.501968 -30.15748 30.15747 -30.15748l0 0c7.9982758 0 15.668945 3.1772969 21.32457 8.832922c5.6556244 5.6556244 8.832916 13.326297 8.832916 21.324558l0 0c0 16.655518 -13.501968 30.157478 -30.157486 30.157478l0 0c-16.655502 0 -30.15747 -13.501961 -30.15747 -30.157478z" fill-rule="evenodd"/><path fill="#2c2d7a" d="m157.60106 411.4881l0 0c0 -21.25644 17.23175 -38.48819 38.48819 -38.48819l0 0c10.207703 0 19.99733 4.0549927 27.215256 11.272949c7.2179413 7.217926 11.272934 17.007538 11.272934 27.21524l0 0c0 21.25644 -17.23175 38.48819 -38.48819 38.48819l0 0c-21.25644 0 -38.48819 -17.23175 -38.48819 -38.48819z" fill-rule="evenodd"/><path fill="#2c2d7a" d="m7.874016E-6 225.80315l0 0c0 -13.698395 11.104749 -24.803146 24.80315 -24.803146l0 0c6.578203 0 12.886982 2.6131897 17.538475 7.264679c4.651493 4.6514893 7.264675 10.960266 7.264675 17.538467l0 0c0 13.69841 -11.104748 24.803162 -24.80315 24.803162l0 0c-13.698401 0 -24.80315 -11.104752 -24.80315 -24.803162z" fill-rule="evenodd"/><path fill="#2c2d7a" d="m358.61948 148.68234l0 0c0 -18.969025 15.370392 -34.34646 34.33072 -34.34646l0 0c9.105072 0 17.83722 3.618637 24.275482 10.059845c6.438263 6.4412155 10.055237 15.177361 10.055237 24.286613l0 0c0 18.969025 -15.370392 34.34645 -34.33072 34.34645l0 0c-18.960327 0 -34.33072 -15.377426 -34.33072 -34.34645z" fill-rule="evenodd"/><path fill="#2c2d7a" d="m89.95594 171.23622l0 0c0 -27.127182 21.990929 -49.11812 49.11811 -49.11812l0 0c13.026932 0 25.520325 5.1749344 34.73175 14.386368c9.211426 9.211426 14.386368 21.704819 14.386368 34.73175l0 0c0 27.127182 -21.990936 49.118103 -49.11812 49.118103l0 0c-27.127182 0 -49.11811 -21.990921 -49.11811 -49.118103z" fill-rule="evenodd"/></g></svg>