<svg version="1.1" viewBox="0.0 0.0 1280.0 1280.0" fill="none" stroke="none" stroke-linecap="square" stroke-miterlimit="10" xmlns:xlink="http://www.w3.org/1999/xlink" xmlns="http://www.w3.org/2000/svg"><clipPath id="p.0"><path d="m0 0l1280.0 0l0 1280.0l-1280.0 0l0 -1280.0z" clip-rule="nonzero"/></clipPath><g clip-path="url(#p.0)"><path fill="#2c2d7a" d="m0 0l1280.0 0l0 1280.0l-1280.0 0z" fill-rule="evenodd"/><path fill="#000000" fill-opacity="0.0" d="m962.4055 485.42636l85.25989 348.56693" fill-rule="evenodd"/><path stroke="#bcc3cd" stroke-width="24.0" stroke-linejoin="round" stroke-linecap="butt" d="m962.4055 485.42636l85.25989 348.56693" fill-rule="evenodd"/><path fill="#000000" fill-opacity="0.0" d="m523.87006 685.9539l521.0079 139.62201" fill-rule="evenodd"/><path stroke="#f1e28b" stroke-width="4.0" stroke-linejoin="round" stroke-linecap="butt" stroke-dasharray="32.0,12.0,4.0,12.0" d="m523.87006 685.9539l521.0079 139.62201" fill-rule="evenodd"/><path fill="#000000" fill-opacity="0.0" d="m986.7677 477.9303l84.346436 346.70868" fill-rule="evenodd"/><path stroke="#f1e28b" stroke-width="4.0" stroke-linejoin="round" stroke-linecap="butt" stroke-dasharray="32.0,12.0,4.0,12.0" d="m986.7677 477.9303l84.346436 346.70868" fill-rule="evenodd"/><path fill="#000000" fill-opacity="0.0" d="m603.98016 406.85687l432.44098 425.29132" fill-rule="evenodd"/><path stroke="#f1e28b" stroke-width="4.0" stroke-linejoin="round" stroke-linecap="butt" stroke-dasharray="32.0,12.0,4.0,12.0" d="m603.98016 406.85687l432.44098 425.29132" fill-rule="evenodd"/><path fill="#000000" fill-opacity="0.0" d="m946.61334 506.31314l179.62201 -176.75592" fill-rule="evenodd"/><path stroke="#bcc3cd" stroke-width="24.0" stroke-linejoin="round" stroke-linecap="butt" d="m946.61334 506.31314l179.62201 -176.75592" fill-rule="evenodd"/><path fill="#f1e28b" d="m1185.2465 332.90598l0 0c-8.366821 31.084473 -40.34851 49.500732 -71.433105 41.13385l0 0c-14.927246 -4.0179443 -27.647095 -13.801147 -35.361206 -27.197449c-7.7139893 -13.396301 -9.790527 -29.30832 -5.772583 -44.235626l0 0c8.366821 -31.084503 40.34851 -49.500763 71.433105 -41.13385l0 0c31.084473 8.366882 49.500732 40.34857 41.13379 71.433075z" fill-rule="evenodd"/><path stroke="#2c2d7a" stroke-width="12.0" stroke-linejoin="round" stroke-linecap="butt" d="m1185.2465 332.90598l0 0c-8.366821 31.084473 -40.34851 49.500732 -71.433105 41.13385l0 0c-14.927246 -4.0179443 -27.647095 -13.801147 -35.361206 -27.197449c-7.7139893 -13.396301 -9.790527 -29.30832 -5.772583 -44.235626l0 0c8.366821 -31.084503 40.34851 -49.500763 71.433105 -41.13385l0 0c31.084473 8.366882 49.500732 40.34857 41.13379 71.433075z" fill-rule="evenodd"/><path fill="#000000" fill-opacity="0.0" d="m966.2301 455.95654l-6.9606323 -210.74017" fill-rule="evenodd"/><path stroke="#bcc3cd" stroke-width="24.0" stroke-linejoin="round" stroke-linecap="butt" d="m966.2301 455.95654l-6.9606323 -210.74017" fill-rule="evenodd"/><path fill="#f1e28b" d="m1007.3543 213.24258l0 0c17.79486 26.831467 10.469238 63.00827 -16.362244 80.80313l0 0c-12.884888 8.54541 -28.63678 11.622284 -43.790283 8.5538025c-15.153503 -3.068512 -28.467468 -12.031067 -37.01288 -24.915985l0 0c-17.79486 -26.831482 -10.469238 -63.008286 16.362244 -80.80316l0 0c26.831482 -17.794876 63.00824 -10.469269 80.80316 16.362213z" fill-rule="evenodd"/><path stroke="#2c2d7a" stroke-width="12.0" stroke-linejoin="round" stroke-linecap="butt" d="m1007.3543 213.24258l0 0c17.79486 26.831467 10.469238 63.00827 -16.362244 80.80313l0 0c-12.884888 8.54541 -28.63678 11.622284 -43.790283 8.5538025c-15.153503 -3.068512 -28.467468 -12.031067 -37.01288 -24.915985l0 0c-17.79486 -26.831482 -10.469238 -63.008286 16.362244 -80.80316l0 0c26.831482 -17.794876 63.00824 -10.469269 80.80316 16.362213z" fill-rule="evenodd"/><path fill="#000000" fill-opacity="0.0" d="m390.5975 648.494l-11.212585 251.71655" fill-rule="evenodd"/><path stroke="#bcc3cd" stroke-width="24.0" stroke-linejoin="round" stroke-linecap="butt" d="m390.5975 648.494l-11.212585 251.71655" fill-rule="evenodd"/><path fill="#f1e28b" d="m328.33847 927.24347l0 0c-15.029114 -28.47528 -4.128845 -63.742554 24.346436 -78.77167l0 0c13.674316 -7.217224 29.65561 -8.706787 44.42816 -4.14093c14.7725525 4.565857 27.126282 14.813049 34.343506 28.487366l0 0c15.029114 28.47528 4.1288147 63.742554 -24.346466 78.77167l0 0c-28.47528 15.029114 -63.742554 4.128845 -78.77164 -24.346436z" fill-rule="evenodd"/><path stroke="#2c2d7a" stroke-width="12.0" stroke-linejoin="round" stroke-linecap="butt" d="m328.33847 927.24347l0 0c-15.029114 -28.47528 -4.128845 -63.742554 24.346436 -78.77167l0 0c13.674316 -7.217224 29.65561 -8.706787 44.42816 -4.14093c14.7725525 4.565857 27.126282 14.813049 34.343506 28.487366l0 0c15.029114 28.47528 4.1288147 63.742554 -24.346466 78.77167l0 0c-28.47528 15.029114 -63.742554 4.128845 -78.77164 -24.346436z" fill-rule="evenodd"/><path fill="#000000" fill-opacity="0.0" d="m386.9005 647.4417l-226.80315 109.79529" fill-rule="evenodd"/><path stroke="#bcc3cd" stroke-width="24.0" stroke-linejoin="round" stroke-linecap="butt" d="m386.9005 647.4417l-226.80315 109.79529" fill-rule="evenodd"/><path fill="#000000" fill-opacity="0.0" d="m382.37665 645.07465l180.37793 -300.6614" fill-rule="evenodd"/><path stroke="#bcc3cd" stroke-width="24.0" stroke-linejoin="round" stroke-linecap="butt" d="m382.37665 645.07465l180.37793 -300.6614" fill-rule="evenodd"/><path fill="#000000" fill-opacity="0.0" d="m969.90155 477.345l-402.01575 -129.29135" fill-rule="evenodd"/><path stroke="#bcc3cd" stroke-width="24.0" stroke-linejoin="round" stroke-linecap="butt" d="m969.90155 477.345l-402.01575 -129.29135" fill-rule="evenodd"/><path fill="#f1e28b" d="m476.07742 345.22687l0 0c0 -49.16638 39.85721 -89.02362 89.02365 -89.02362l0 0c23.610535 0 46.25403 9.379242 62.949158 26.074432c16.69519 16.69516 26.074463 39.338654 26.074463 62.94919l0 0c0 49.16638 -39.85724 89.02362 -89.02362 89.02362l0 0c-49.166443 0 -89.02365 -39.85724 -89.02365 -89.02362z" fill-rule="evenodd"/><path stroke="#2c2d7a" stroke-width="12.0" stroke-linejoin="round" stroke-linecap="butt" d="m476.07742 345.22687l0 0c0 -49.16638 39.85721 -89.02362 89.02365 -89.02362l0 0c23.610535 0 46.25403 9.379242 62.949158 26.074432c16.69519 16.69516 26.074463 39.338654 26.074463 62.94919l0 0c0 49.16638 -39.85724 89.02362 -89.02362 89.02362l0 0c-49.166443 0 -89.02365 -39.85724 -89.02365 -89.02362z" fill-rule="evenodd"/><path fill="#f1e28b" d="m337.0395 612.9706l0 0c17.913239 -26.766785 54.133545 -33.94403 80.90033 -16.030762l0 0c12.853882 8.602234 21.764038 21.958313 24.770416 37.130066c3.0063477 15.171753 -0.13739014 30.916382 -8.739624 43.770264l0 0c-17.913239 26.766785 -54.133545 33.94403 -80.90036 16.030762l0 0c-26.766785 -17.913208 -33.944 -54.133545 -16.030762 -80.90033z" fill-rule="evenodd"/><path stroke="#2c2d7a" stroke-width="12.0" stroke-linejoin="round" stroke-linecap="butt" d="m337.0395 612.9706l0 0c17.913239 -26.766785 54.133545 -33.94403 80.90033 -16.030762l0 0c12.853882 8.602234 21.764038 21.958313 24.770416 37.130066c3.0063477 15.171753 -0.13739014 30.916382 -8.739624 43.770264l0 0c-17.913239 26.766785 -54.133545 33.94403 -80.90036 16.030762l0 0c-26.766785 -17.913208 -33.944 -54.133545 -16.030762 -80.90033z" fill-rule="evenodd"/><path fill="#2c2d7a" d="m346.5546 619.33844l0 0c14.396362 -21.51178 43.505646 -27.279907 65.017395 -12.883545l0 0c10.330292 6.913391 17.49118 17.647339 19.907288 29.840454c2.4161377 12.193115 -0.1104126 24.84668 -7.023773 35.17694l0 0c-14.396393 21.51178 -43.505676 27.279907 -65.017395 12.883545l0 0c-21.51175 -14.396423 -27.279907 -43.505676 -12.883514 -65.017395z" fill-rule="evenodd"/><path fill="#f1e28b" d="m354.94412 624.953l0 0c11.295532 -16.878357 34.13498 -21.404114 51.013306 -10.108582l0 0c8.105255 5.4243164 13.723755 13.846313 15.619476 23.413147c1.8957214 9.5668335 -0.086639404 19.494934 -5.5109253 27.60022l0 0c-11.295563 16.878296 -34.13501 21.404053 -51.013336 10.1085205l0 0c-16.878326 -11.295593 -21.404053 -34.13501 -10.1085205 -51.013306z" fill-rule="evenodd"/><path fill="#2c2d7a" d="m527.8727 345.22687l0 0c0 -20.560638 16.667725 -37.228333 37.228394 -37.228333l0 0c9.873535 0 19.342712 3.9222412 26.324402 10.903931c6.9816895 6.981659 10.903931 16.450836 10.903931 26.324402l0 0c0 20.560669 -16.667725 37.228363 -37.228333 37.228363l0 0c-20.560669 0 -37.228394 -16.667694 -37.228394 -37.228363z" fill-rule="evenodd"/><path fill="#f1e28b" d="m911.2218 481.16388l0 0c0 -32.20645 26.10846 -58.31494 58.31494 -58.31494l0 0c15.466064 0 30.298706 6.14386 41.234924 17.080048c10.936157 10.936157 17.080017 25.768799 17.080017 41.234894l0 0c0 32.206482 -26.10846 58.31494 -58.31494 58.31494l0 0c-32.206482 0 -58.31494 -26.10846 -58.31494 -58.31494z" fill-rule="evenodd"/><path stroke="#2c2d7a" stroke-width="12.0" stroke-linejoin="round" stroke-linecap="butt" d="m911.2218 481.16388l0 0c0 -32.20645 26.10846 -58.31494 58.31494 -58.31494l0 0c15.466064 0 30.298706 6.14386 41.234924 17.080048c10.936157 10.936157 17.080017 25.768799 17.080017 41.234894l0 0c0 32.206482 -26.10846 58.31494 -58.31494 58.31494l0 0c-32.206482 0 -58.31494 -26.10846 -58.31494 -58.31494z" fill-rule="evenodd"/><path fill="#2c2d7a" d="m922.6706 481.16388l0 0c0 -25.883453 20.982727 -46.86615 46.86615 -46.86615l0 0c12.4296875 0 24.35028 4.937683 33.139343 13.726776c8.789124 8.789124 13.726807 20.709717 13.726807 33.139374l0 0c0 25.883453 -20.982666 46.86615 -46.86615 46.86615l0 0c-25.883423 0 -46.86615 -20.982697 -46.86615 -46.86615z" fill-rule="evenodd"/><path fill="#f1e28b" d="m932.7651 481.16388l0 0c0 -20.30841 16.463257 -36.771637 36.771667 -36.771637l0 0c9.752441 0 19.105469 3.8741455 26.001465 10.770142c6.896057 6.8960266 10.770203 16.249054 10.770203 26.001495l0 0c0 20.308441 -16.463257 36.771667 -36.771667 36.771667l0 0c-20.30841 0 -36.771667 -16.463226 -36.771667 -36.771667z" fill-rule="evenodd"/><path fill="#f1e28b" d="m112.046684 725.1667l0 0c17.916649 -26.761902 54.13575 -33.932373 80.89764 -16.015747l0 0c12.851517 8.603882 21.75879 21.960571 24.76233 37.131836c3.00354 15.171265 -0.1427002 30.914246 -8.746582 43.76581l0 0c-17.916626 26.76184 -54.135742 33.932373 -80.89763 16.015747l0 0c-26.761894 -17.916687 -33.93239 -54.135742 -16.015755 -80.897644z" fill-rule="evenodd"/><path stroke="#2c2d7a" stroke-width="12.0" stroke-linejoin="round" stroke-linecap="butt" d="m112.046684 725.1667l0 0c17.916649 -26.761902 54.13575 -33.932373 80.89764 -16.015747l0 0c12.851517 8.603882 21.75879 21.960571 24.76233 37.131836c3.00354 15.171265 -0.1427002 30.914246 -8.746582 43.76581l0 0c-17.916626 26.76184 -54.135742 33.932373 -80.89763 16.015747l0 0c-26.761894 -17.916687 -33.93239 -54.135742 -16.015755 -80.897644z" fill-rule="evenodd"/><path fill="#6d6fb0" d="m988.97504 844.293l0 0c-8.662598 -34.145996 11.995789 -68.84918 46.141785 -77.51178l0 0c16.39746 -4.159973 33.77588 -1.6356201 48.312134 7.017639c14.536255 8.653259 25.039673 22.726624 29.199585 39.124084l0 0c8.66272 34.145996 -11.995728 68.84918 -46.141724 77.51178l0 0c-34.145996 8.662598 -68.84918 -11.995728 -77.51178 -46.141724z" fill-rule="evenodd"/><path stroke="#2c2d7a" stroke-width="12.0" stroke-linejoin="round" stroke-linecap="butt" d="m988.97504 844.293l0 0c-8.662598 -34.145996 11.995789 -68.84918 46.141785 -77.51178l0 0c16.39746 -4.159973 33.77588 -1.6356201 48.312134 7.017639c14.536255 8.653259 25.039673 22.726624 29.199585 39.124084l0 0c8.66272 34.145996 -11.995728 68.84918 -46.141724 77.51178l0 0c-34.145996 8.662598 -68.84918 -11.995728 -77.51178 -46.141724z" fill-rule="evenodd"/><path fill="#000000" fill-opacity="0.0" d="m1007.03784 794.4869l95.811035 0l0 98.17322l-95.811035 0z" fill-rule="evenodd"/><path fill="#f1e28b" d="m1035.0222 836.76685l-4.640625 0l0 -10.1875q0 -2.1875 -0.765625 -3.1875q-0.75 -1.0 -2.109375 -1.0q-0.6875 0 -1.421875 0.28125q-0.71875 0.265625 -1.359375 0.765625q-0.640625 0.5 -1.171875 1.203125q-0.515625 0.6875 -0.75 1.515625l0 10.609375l-4.65625 0l0 -18.15625l4.203125 0l0 3.359375q1.0 -1.734375 2.90625 -2.703125q1.90625 -0.96875 4.296875 -0.96875q1.703125 0 2.765625 0.625q1.078125 0.625 1.671875 1.625q0.59375 1.0 0.8125 2.28125q0.21875 1.28125 0.21875 2.609375l0 11.328125zm12.479248 0.34375q-2.171875 0 -3.953125 -0.734375q-1.765625 -0.75 -3.015625 -2.03125q-1.234375 -1.28125 -1.921875 -2.984375q-0.671875 -1.703125 -0.671875 -3.5625q0 -1.953125 0.65625 -3.65625q0.65625 -1.71875 1.90625 -3.015625q1.25 -1.3125 3.03125 -2.0625q1.796875 -0.765625 4.0 -0.765625q2.21875 0 3.96875 0.765625q1.75 0.75 2.984375 2.046875q1.234375 1.28125 1.875 2.984375q0.640625 1.6875 0.640625 3.515625q0 0.453125 -0.015625 0.875q-0.015625 0.421875 -0.09375 0.6875l-14.03125 0q0.109375 1.078125 0.515625 1.90625q0.421875 0.828125 1.078125 1.421875q0.65625 0.59375 1.484375 0.90625q0.84375 0.3125 1.734375 0.3125q1.390625 0 2.625 -0.671875q1.234375 -0.6875 1.671875 -1.796875l3.984375 1.109375q-1.0 2.078125 -3.203125 3.421875q-2.203125 1.328125 -5.25 1.328125zm4.71875 -10.953125q-0.171875 -2.046875 -1.515625 -3.265625q-1.328125 -1.234375 -3.234375 -1.234375q-0.9375 0 -1.75 0.328125q-0.8125 0.328125 -1.4375 0.921875q-0.625 0.59375 -1.03125 1.421875q-0.390625 0.828125 -0.453125 1.828125l9.421875 0zm29.664429 -7.546875l4.40625 0l-7.59375 18.15625l-3.8125 0l-3.125 -7.96875l-3.078125 7.96875l-3.8125 0l-7.5625 -18.15625l4.375 0l5.40625 13.796875l2.21875 -5.90625l-3.1875 -7.859375l3.734375 0l1.90625 5.578125l1.953125 -5.578125l3.734375 0l-3.15625 7.859375l2.1875 5.90625l5.40625 -13.796875z" fill-rule="nonzero"/><path fill="#000000" fill-opacity="0.0" d="m740.6043 450.06436l77.763794 0l0 122.39371l-77.763794 0z" fill-rule="evenodd"/><path fill="#6d6fb0" d="m774.6668 503.81122l0 6.453125l-21.65625 0l0 -6.453125l7.578125 0l0 -16.15625q-0.484375 0.640625 -1.53125 1.3125q-1.03125 0.65625 -2.265625 1.25q-1.21875 0.578125 -2.53125 0.953125q-1.296875 0.375 -2.3125 0.375l0 -6.671875q0.96875 0 2.34375 -0.609375q1.390625 -0.609375 2.71875 -1.453125q1.34375 -0.859375 2.328125 -1.6875q0.984375 -0.828125 1.25 -1.3125l7.3125 0l0 24.0l6.765625 0z" fill-rule="nonzero"/><path fill="#000000" fill-opacity="0.0" d="m654.12396 726.30585l77.763794 0l0 122.39368l-77.763794 0z" fill-rule="evenodd"/><path fill="#6d6fb0" d="m665.1552 786.5058q0 -2.40625 0.359375 -4.34375q0.375 -1.953125 1.3125 -3.59375q0.9375 -1.65625 2.5625 -3.09375q1.625 -1.453125 4.140625 -2.828125q2.171875 -1.171875 3.84375 -2.046875q1.6875 -0.890625 2.8125 -1.640625q1.125 -0.75 1.703125 -1.515625q0.59375 -0.78125 0.59375 -1.78125q0 -1.609375 -1.28125 -2.75q-1.28125 -1.15625 -3.671875 -1.15625q-1.28125 0 -2.359375 0.359375q-1.0625 0.34375 -2.0 0.9375q-0.921875 0.578125 -1.703125 1.296875q-0.765625 0.71875 -1.40625 1.515625l-4.59375 -5.28125q0.703125 -0.734375 1.96875 -1.609375q1.28125 -0.890625 3.015625 -1.65625q1.734375 -0.78125 3.84375 -1.28125q2.109375 -0.515625 4.5 -0.515625q2.71875 0 4.859375 0.671875q2.140625 0.65625 3.59375 1.859375q1.46875 1.203125 2.234375 2.890625q0.78125 1.671875 0.78125 3.640625q0 1.875 -0.703125 3.3125q-0.6875 1.4375 -1.75 2.5625q-1.0625 1.109375 -2.3125 1.9375q-1.25 0.828125 -2.4375 1.46875q-0.953125 0.53125 -2.1875 1.234375q-1.21875 0.6875 -2.421875 1.515625q-1.203125 0.828125 -2.21875 1.703125q-1.0 0.875 -1.53125 1.734375l16.15625 0l0 6.453125l-25.703125 0z" fill-rule="nonzero"/><path fill="#000000" fill-opacity="0.0" d="m1062.7773 603.9121l77.763794 0l0 122.39374l-77.763794 0z" fill-rule="evenodd"/><path fill="#6d6fb0" d="m1073.8086 664.1121q0 -2.40625 0.359375 -4.34375q0.375 -1.953125 1.3125 -3.59375q0.9375 -1.65625 2.5625 -3.09375q1.625 -1.453125 4.140625 -2.828125q2.171875 -1.171875 3.84375 -2.046875q1.6875 -0.890625 2.8125 -1.640625q1.125 -0.75 1.703125 -1.515625q0.59375 -0.78125 0.59375 -1.78125q0 -1.609375 -1.28125 -2.75q-1.28125 -1.15625 -3.671875 -1.15625q-1.28125 0 -2.359375 0.359375q-1.0625 0.34375 -2.0 0.9375q-0.921875 0.578125 -1.703125 1.296875q-0.765625 0.71875 -1.40625 1.515625l-4.59375 -5.28125q0.703125 -0.734375 1.96875 -1.609375q1.28125 -0.890625 3.015625 -1.65625q1.734375 -0.78125 3.84375 -1.28125q2.109375 -0.515625 4.5 -0.515625q2.71875 0 4.859375 0.671875q2.140625 0.65625 3.59375 1.859375q1.46875 1.203125 2.234375 2.890625q0.78125 1.671875 0.78125 3.640625q0 1.875 -0.703125 3.3125q-0.6875 1.4375 -1.75 2.5625q-1.0625 1.109375 -2.3125 1.9375q-1.25 0.828125 -2.4375 1.46875q-0.953125 0.53125 -2.1875 1.234375q-1.21875 0.6875 -2.421875 1.515625q-1.203125 0.828125 -2.21875 1.703125q-1.0 0.875 -1.53125 1.734375l16.15625 0l0 6.453125l-25.703125 0z" fill-rule="nonzero"/><path fill="#000000" fill-opacity="0.0" d="m923.1399 558.30585l77.763794 0l0 122.39368l-77.763794 0z" fill-rule="evenodd"/><path fill="#6d6fb0" d="m952.4524 605.9277q3.3125 0.578125 5.359375 3.171875q2.0625 2.578125 2.0625 6.3125q0 2.5 -1.0 4.53125q-0.984375 2.03125 -2.765625 3.4375q-1.78125 1.421875 -4.34375 2.1875q-2.5625 0.78125 -5.765625 0.78125q-4.046875 0 -7.171875 -1.3125q-3.109375 -1.3125 -5.1875 -3.8125l4.046875 -5.0625q1.390625 1.75 3.296875 2.703125q1.921875 0.96875 4.8125 0.96875q3.25 0 4.953125 -1.28125q1.703125 -1.265625 1.703125 -3.9375q0 -2.78125 -1.96875 -4.265625q-1.96875 -1.5 -5.96875 -1.5l-1.5 0l0 -5.328125l1.65625 0q3.3125 0 5.125 -1.46875q1.8125 -1.46875 1.8125 -3.765625q0 -2.171875 -1.5 -3.234375q-1.484375 -1.078125 -3.890625 -1.078125q-2.453125 0 -4.40625 1.125q-1.9375 1.109375 -3.171875 3.140625l-4.46875 -5.015625q0.796875 -1.21875 2.125 -2.203125q1.34375 -1.0 3.015625 -1.71875q1.6875 -0.71875 3.65625 -1.109375q1.96875 -0.40625 4.046875 -0.40625q2.71875 0 4.953125 0.703125q2.25 0.6875 3.875 1.921875q1.625 1.21875 2.5 2.953125q0.890625 1.734375 0.890625 3.859375q0 1.609375 -0.484375 3.046875q-0.484375 1.4375 -1.390625 2.609375q-0.90625 1.171875 -2.15625 1.96875q-1.25 0.796875 -2.75 1.078125z" fill-rule="nonzero"/><path fill="#000000" fill-opacity="0.0" d="m96.140236 1000.4517l781.8267 0l0 227.33856l-781.8267 0z" fill-rule="evenodd"/><path fill="#f1e28b" d="m159.93712 1105.4517l-13.390625 0l0 -29.40625q0 -6.296875 -2.203125 -9.1875q-2.203125 -2.90625 -6.109375 -2.90625q-2.0 0 -4.09375 0.796875q-2.09375 0.796875 -3.953125 2.25q-1.84375 1.453125 -3.3437576 3.453125q-1.5 2.0 -2.203125 4.40625l0 30.59375l-13.40625 0l0 -52.40625l12.109375 0l0 9.703125q2.890625 -5.0 8.390633 -7.796875q5.5 -2.796875 12.40625 -2.796875q4.90625 0 8.0 1.796875q3.09375 1.796875 4.796875 4.703125q1.703125 2.890625 2.34375 6.59375q0.65625 3.703125 0.65625 7.5l0 32.703125zm36.009323 1.0q-6.3125 0 -11.40625 -2.140625q-5.09375 -2.15625 -8.703125 -5.859375q-3.59375 -3.703125 -5.546875 -8.59375q-1.953125 -4.90625 -1.953125 -10.3125q0 -5.59375 1.890625 -10.546875q1.90625 -4.953125 5.5 -8.703125q3.609375 -3.75 8.75 -5.9375q5.15625 -2.203125 11.5625 -2.203125q6.40625 0 11.453125 2.203125q5.046875 2.1875 8.59375 5.890625q3.546875 3.703125 5.390625 8.609375q1.859375 4.890625 1.859375 10.1875q0 1.3125 -0.046875 2.515625q-0.046875 1.1875 -0.25 1.984375l-40.5 0q0.296875 3.109375 1.5 5.515625q1.203125 2.390625 3.09375 4.09375q1.90625 1.703125 4.296875 2.609375q2.40625 0.890625 5.015625 0.890625q4.0 0 7.546875 -1.953125q3.546875 -1.953125 4.84375 -5.15625l11.5 3.203125q-2.890625 6.0 -9.25 9.859375q-6.34375 3.84375 -15.140625 3.84375zm13.59375 -31.59375q-0.5 -5.90625 -4.359375 -9.453125q-3.84375 -3.546875 -9.34375 -3.546875q-2.703125 0 -5.046875 0.953125q-2.34375 0.9375 -4.15625 2.640625q-1.796875 1.703125 -2.953125 4.109375q-1.140625 2.390625 -1.34375 5.296875l27.203125 0zm85.59369 -21.8125l12.703125 0l-21.890625 52.40625l-11.0 0l-9.0 -23.0l-8.90625 23.0l-10.999985 0l-21.796875 -52.40625l12.59375 0l15.609375 39.8125l6.3906097 -17.0l-9.20311 -22.703125l10.812485 0l5.5 16.09375l5.59375 -16.09375l10.796875 0l-9.09375 22.703125l6.296875 17.0l15.59375 -39.8125zm88.903015 52.40625l-13.390625 0l0 -29.40625q0 -6.296875 -2.203125 -9.1875q-2.203125 -2.90625 -6.109375 -2.90625q-2.0 0 -4.09375 0.796875q-2.09375 0.796875 -3.953125 2.25q-1.84375 1.453125 -3.3437195 3.453125q-1.5 2.0 -2.203125 4.40625l0 30.59375l-13.40625 0l0 -52.40625l12.109375 0l0 9.703125q2.890625 -5.0 8.3905945 -7.796875q5.5 -2.796875 12.40625 -2.796875q4.90625 0 8.0 1.796875q3.09375 1.796875 4.796875 4.703125q1.703125 2.890625 2.34375 6.59375q0.65625 3.703125 0.65625 7.5l0 32.703125zm35.899963 1.0q-6.390625 0 -11.5 -2.203125q-5.09375 -2.203125 -8.65625 -5.953125q-3.546875 -3.75 -5.453125 -8.640625q-1.890625 -4.90625 -1.890625 -10.296875q0 -5.5 1.890625 -10.40625q1.90625 -4.90625 5.453125 -8.65625q3.5625 -3.75 8.65625 -5.9375q5.109375 -2.203125 11.5 -2.203125q6.40625 0 11.453125 2.203125q5.046875 2.1875 8.59375 5.9375q3.5625 3.75 5.453125 8.65625q1.90625 4.90625 1.90625 10.40625q0 5.390625 -1.90625 10.296875q-1.890625 4.890625 -5.390625 8.640625q-3.5 3.75 -8.609375 5.953125q-5.09375 2.203125 -11.5 2.203125zm-13.703125 -27.09375q0 3.5 1.046875 6.34375q1.0625 2.84375 2.90625 4.953125q1.859375 2.09375 4.359375 3.25q2.5 1.140625 5.390625 1.140625q2.90625 0 5.40625 -1.140625q2.5 -1.15625 4.34375 -3.25q1.859375 -2.109375 2.90625 -5.0q1.046875 -2.90625 1.046875 -6.40625q0 -3.390625 -1.046875 -6.296875q-1.046875 -2.90625 -2.90625 -5.0q-1.84375 -2.09375 -4.34375 -3.25q-2.5 -1.15625 -5.40625 -1.15625q-2.890625 0 -5.390625 1.203125q-2.5 1.203125 -4.359375 3.3125q-1.84375 2.09375 -2.90625 5.0q-1.046875 2.890625 -1.046875 6.296875zm71.80307 27.09375q-5.390625 0 -10.0 -2.09375q-4.59375 -2.109375 -7.90625 -5.796875q-3.296875 -3.703125 -5.140625 -8.65625q-1.84375 -4.953125 -1.84375 -10.65625q0 -5.703125 1.75 -10.59375q1.75 -4.90625 4.84375 -8.59375q3.09375 -3.703125 7.390625 -5.796875q4.3125 -2.109375 9.40625 -2.109375q5.796875 0 10.453125 2.796875q4.65625 2.796875 7.25 7.296875l0 -29.796875l13.40625 0l0 57.59375q0 2.109375 0.6875 3.015625q0.703125 0.890625 2.40625 0.984375l0 11.40625q-3.5 0.703125 -5.703125 0.703125q-3.59375 0 -5.90625 -1.796875q-2.296875 -1.8125 -2.59375 -4.703125l-0.296875 -3.296875q-2.90625 5.0 -7.859375 7.546875q-4.9375 2.546875 -10.34375 2.546875zm3.5 -11.40625q1.90625 0 3.90625 -0.640625q2.0 -0.65625 3.6875 -1.84375q1.703125 -1.203125 3.046875 -2.796875q1.359375 -1.609375 2.0625 -3.515625l0 -12.5q-0.796875 -2.203125 -2.25 -4.046875q-1.453125 -1.84375 -3.3125 -3.1875q-1.84375 -1.359375 -3.890625 -2.15625q-2.046875 -0.8125 -4.046875 -0.8125q-3.0 0 -5.546875 1.3125q-2.546875 1.296875 -4.359375 3.546875q-1.796875 2.25 -2.796875 5.15625q-1.0 2.890625 -1.0 5.984375q0 3.3125 1.09375 6.109375q1.109375 2.796875 3.0 4.90625q1.90625 2.09375 4.546875 3.296875q2.65625 1.1875 5.859375 1.1875zm63.609314 11.40625q-6.3125 0 -11.40625 -2.140625q-5.09375 -2.15625 -8.703125 -5.859375q-3.59375 -3.703125 -5.546875 -8.59375q-1.953125 -4.90625 -1.953125 -10.3125q0 -5.59375 1.890625 -10.546875q1.90625 -4.953125 5.5 -8.703125q3.609375 -3.75 8.75 -5.9375q5.15625 -2.203125 11.5625 -2.203125q6.40625 0 11.453125 2.203125q5.046875 2.1875 8.59375 5.890625q3.546875 3.703125 5.390625 8.609375q1.859375 4.890625 1.859375 10.1875q0 1.3125 -0.046875 2.515625q-0.046875 1.1875 -0.25 1.984375l-40.5 0q0.296875 3.109375 1.5 5.515625q1.203125 2.390625 3.09375 4.09375q1.90625 1.703125 4.296875 2.609375q2.40625 0.890625 5.015625 0.890625q4.0 0 7.546875 -1.953125q3.546875 -1.953125 4.84375 -5.15625l11.5 3.203125q-2.890625 6.0 -9.25 9.859375q-6.34375 3.84375 -15.140625 3.84375zm13.59375 -31.59375q-0.5 -5.90625 -4.359375 -9.453125q-3.84375 -3.546875 -9.34375 -3.546875q-2.703125 0 -5.046875 0.953125q-2.34375 0.9375 -4.15625 2.640625q-1.796875 1.703125 -2.953125 4.109375q-1.140625 2.390625 -1.34375 5.296875l27.203125 0z" fill-rule="nonzero"/></g></svg>